HIERARCHY
ROOT Hips
{
	OFFSET 0.000000 89.005402 0.000000
	CHANNELS 6 Xposition Yposition Zposition Xrotation Yrotation Zrotation
	JOINT Spine
	{
		OFFSET 0.116900 10.681000 0.373400
		CHANNELS 3 Xrotation Yrotation Zrotation
		JOINT Spine1
		{
			OFFSET 0.000000 13.840401 0.053500
			CHANNELS 3 Xrotation Yrotation Zrotation
			JOINT Spine2
			{
				OFFSET 0.000000 14.712700 -0.366200
				CHANNELS 3 Xrotation Yrotation Zrotation
				JOINT Neck
				{
					OFFSET 0.000000 35.415497 -3.314200
					CHANNELS 3 Xrotation Yrotation Zrotation
					JOINT Head
					{
						OFFSET 0.000000 16.899200 1.218300
						CHANNELS 3 Xrotation Yrotation Zrotation
						JOINT HeadTop_End
						{
							OFFSET 0.000000 22.206207 2.192500
							CHANNELS 3 Xrotation Yrotation Zrotation
							End Site
							{
								OFFSET 0.000000 22.314178 0.000000
							}
						}
					}
				}
				JOINT LeftShoulder
				{
					OFFSET 12.896400 26.716293 -4.548400
					CHANNELS 3 Xrotation Yrotation Zrotation
					JOINT LeftArm
					{
						OFFSET 19.027000 -4.857010 -1.718400
						CHANNELS 3 Xrotation Yrotation Zrotation
						JOINT LeftForeArm
						{
							OFFSET 24.179897 0.000000 0.000000
							CHANNELS 3 Xrotation Yrotation Zrotation
							JOINT LeftHand
							{
								OFFSET 27.156403 0.000000 0.000000
								CHANNELS 3 Xrotation Yrotation Zrotation
								JOINT LeftHandIndex1
								{
									OFFSET 16.441200 0.000000 0.000000
									CHANNELS 3 Xrotation Yrotation Zrotation
									JOINT LeftHandIndex2
									{
										OFFSET 4.821899 0.000000 0.000000
										CHANNELS 3 Xrotation Yrotation Zrotation
										JOINT LeftHandIndex3
										{
											OFFSET 6.386497 0.000000 0.000000
											CHANNELS 3 Xrotation Yrotation Zrotation
											JOINT LeftHandIndex4
											{
												OFFSET 5.188988 0.000000 0.000000
												CHANNELS 3 Xrotation Yrotation Zrotation
												End Site
												{
													OFFSET -0.178703 5.185913 0.000177
												}
											}
										}
									}
								}
								JOINT LeftHandThumb1
								{
									OFFSET 6.534897 -5.032593 5.900300
									CHANNELS 3 Xrotation Yrotation Zrotation
									JOINT LeftHandThumb2
									{
										OFFSET 3.818176 -2.204422 2.204423
										CHANNELS 3 Xrotation Yrotation Zrotation
										JOINT LeftHandThumb3
										{
											OFFSET 3.252098 -1.877594 1.877601
											CHANNELS 3 Xrotation Yrotation Zrotation
											JOINT LeftHandThumb4
											{
												OFFSET 5.251778 -3.032120 3.032117
												CHANNELS 3 Xrotation Yrotation Zrotation
												End Site
												{
													OFFSET 0.000023 6.780014 0.000000
												}
											}
										}
									}
								}
							}
						}
					}
				}
				JOINT RightShoulder
				{
					OFFSET -12.896300 26.716293 -4.548400
					CHANNELS 3 Xrotation Yrotation Zrotation
					JOINT RightArm
					{
						OFFSET -19.027000 -4.857010 -1.718400
						CHANNELS 3 Xrotation Yrotation Zrotation
						JOINT RightForeArm
						{
							OFFSET -24.179897 0.000000 0.000000
							CHANNELS 3 Xrotation Yrotation Zrotation
							JOINT RightHand
							{
								OFFSET -27.156403 0.000000 0.000000
								CHANNELS 3 Xrotation Yrotation Zrotation
								JOINT RightHandThumb1
								{
									OFFSET -6.591202 -4.852203 5.988100
									CHANNELS 3 Xrotation Yrotation Zrotation
									JOINT RightHandThumb2
									{
										OFFSET -3.818176 -2.204422 2.204423
										CHANNELS 3 Xrotation Yrotation Zrotation
										JOINT RightHandThumb3
										{
											OFFSET -3.252098 -1.877594 1.877601
											CHANNELS 3 Xrotation Yrotation Zrotation
											JOINT RightHandThumb4
											{
												OFFSET -5.251778 -3.032120 3.032117
												CHANNELS 3 Xrotation Yrotation Zrotation
												End Site
												{
													OFFSET -0.000023 6.780014 0.000000
												}
											}
										}
									}
								}
								JOINT RightHandIndex1
								{
									OFFSET -16.029404 0.000000 0.000000
									CHANNELS 3 Xrotation Yrotation Zrotation
									JOINT RightHandIndex2
									{
										OFFSET -5.213303 0.000000 0.000000
										CHANNELS 3 Xrotation Yrotation Zrotation
										JOINT RightHandIndex3
										{
											OFFSET -6.386528 0.000000 0.000000
											CHANNELS 3 Xrotation Yrotation Zrotation
											JOINT RightHandIndex4
											{
												OFFSET -5.189026 0.000000 0.000000
												CHANNELS 3 Xrotation Yrotation Zrotation
												End Site
												{
													OFFSET 0.236702 5.183624 0.001972
												}
											}
										}
									}
								}
							}
						}
					}
				}
			}
		}
	}
	JOINT LeftUpLeg
	{
		OFFSET 14.073000 -7.904099 -1.463000
		CHANNELS 3 Xrotation Yrotation Zrotation
		JOINT LeftLeg
		{
			OFFSET -0.109806 -34.073280 4.093200
			CHANNELS 3 Xrotation Yrotation Zrotation
			JOINT LeftFoot
			{
				OFFSET 0.109806 -29.899420 -6.319000
				CHANNELS 3 Xrotation Yrotation Zrotation
				JOINT LeftToeBase
				{
					OFFSET 1.551100 -14.988700 20.535801
					CHANNELS 3 Xrotation Yrotation Zrotation
					JOINT LeftToe_End
					{
						OFFSET 0.221200 0.570800 13.248301
						CHANNELS 3 Xrotation Yrotation Zrotation
						End Site
						{
							OFFSET 0.000000 13.262435 0.000000
						}
					}
				}
			}
		}
	}
	JOINT RightUpLeg
	{
		OFFSET -13.839300 -7.904099 -1.463000
		CHANNELS 3 Xrotation Yrotation Zrotation
		JOINT RightLeg
		{
			OFFSET 0.109694 -34.073219 4.093300
			CHANNELS 3 Xrotation Yrotation Zrotation
			JOINT RightFoot
			{
				OFFSET -0.109694 -29.899384 -6.319200
				CHANNELS 3 Xrotation Yrotation Zrotation
				JOINT RightToeBase
				{
					OFFSET -1.551100 -14.988700 20.535801
					CHANNELS 3 Xrotation Yrotation Zrotation
					JOINT RightToe_End
					{
						OFFSET -0.221200 0.570900 13.248299
						CHANNELS 3 Xrotation Yrotation Zrotation
						End Site
						{
							OFFSET 0.000000 13.262440 0.000000
						}
					}
				}
			}
		}
	}
}
MOTION
Frames: 9
Frame Time: 0.033333
8.445292 59.175465 131.778412 51.935123 -6.885853 15.304794 16.034537 4.946981 -1.249332 9.682067 3.102565 -1.414271 9.568814 3.321953 -0.704406 -10.819196 1.815527 -6.888138 -43.130859 1.218797 -4.327620 0.000001 -0.000001 -0.000001 -7.926398 -6.665502 -4.130469 -10.216380 -11.681448 -50.223139 0.000020 -40.958718 0.000013 -35.191897 9.313072 21.803009 3.459334 -7.319104 -11.758047 0.493908 2.356287 -23.674201 0.338994 1.965701 -19.567599 0.000000 0.000002 -0.000000 -8.767465 4.887043 10.760960 4.381760 5.286898 -0.973705 -5.201902 8.360536 10.877367 -0.000002 -0.000000 -0.000000 -3.914508 2.617851 14.163497 -29.627144 33.311481 39.613482 0.000003 19.616814 0.000002 -95.315980 -2.803547 -10.027723 -11.158412 19.416990 12.891617 7.109751 -18.649017 -0.798836 -4.947988 -9.792570 -15.628547 0.000002 -0.000002 -0.000005 0.178230 5.325189 23.973780 0.290871 -1.621666 20.336600 0.133619 -1.108755 13.743614 0.000001 -0.000000 0.000001 -119.620641 1.938735 11.360010 66.001586 5.823011 -7.517290 3.865067 -14.715149 5.281903 -5.068572 -0.000012 0.000001 -0.000000 -0.000000 0.000000 -72.696709 -5.691597 -4.170117 105.065494 4.221027 -5.052471 -40.018130 -3.828712 -8.747136 -44.037423 -1.367432 3.022475 0.000000 0.000002 -0.000000 
8.683479 59.956631 131.695190 50.621988 -7.881498 13.573587 16.035490 4.898540 -1.123214 9.588061 2.986810 -1.427276 9.474927 3.199472 -0.703634 -10.914958 2.103241 -7.311363 -43.381267 1.304814 -2.859947 0.000001 -0.000000 0.000000 -8.462801 -7.440694 -4.923758 -11.275339 -9.698496 -49.649656 0.000023 -42.745878 0.000002 -34.059432 8.980724 19.274454 3.244347 -7.026141 -15.116419 0.551884 2.484203 -25.046959 0.407812 2.149405 -21.484321 -0.000002 0.000001 -0.000000 -4.997536 5.333195 9.704285 4.450883 5.623486 -0.902156 -5.213784 8.413508 10.983634 -0.000000 -0.000001 -0.000001 -3.914161 1.258017 16.127883 -23.883302 31.364270 40.627020 -0.000001 15.595870 -0.000010 -92.783591 -5.731012 -9.460113 -11.788173 19.583682 11.958722 7.105489 -18.654893 -0.834502 -4.936807 -9.883767 -15.647567 0.000003 -0.000001 -0.000003 0.179791 5.327081 23.226613 0.273782 -1.574796 19.723657 0.129687 -1.092542 13.538958 0.000000 0.000001 0.000001 -117.868807 0.910645 11.374166 65.247288 6.040999 -7.502232 4.429630 -15.254748 5.858062 -5.102145 -0.000004 0.000000 -0.000000 -0.000001 0.000000 -68.070854 -7.587429 -2.887708 100.062087 4.730612 -4.353905 -47.704934 -2.355841 -9.463959 -33.473190 -0.483346 2.847335 0.000000 -0.000000 0.000000 
8.888258 60.550877 131.432983 48.920745 -9.026927 11.936203 16.049338 4.720684 -1.081341 9.504440 2.810247 -1.496042 9.389867 3.024266 -0.759743 -10.819621 2.322349 -7.400816 -43.260441 1.509154 -1.367853 -0.000002 0.000000 -0.000001 -9.022657 -7.269121 -6.540387 -11.797578 -8.848432 -48.280729 0.000002 -44.270981 -0.000007 -32.793907 8.857736 17.170735 3.117553 -6.652436 -18.561323 0.608575 2.601959 -26.324603 0.493440 2.355208 -23.662794 -0.000002 -0.000002 -0.000001 -1.323860 5.658796 8.568367 4.529235 6.015728 -0.824716 -5.225588 8.466944 11.090632 -0.000000 -0.000001 -0.000001 -4.269264 -0.012183 16.496230 -18.651476 27.617696 43.244206 -0.000008 13.911729 0.000014 -90.551001 -8.118791 -9.091810 -12.502273 19.599858 10.786516 7.101261 -18.660796 -0.870117 -4.925673 -9.974953 -15.666589 0.000002 -0.000001 -0.000001 0.163281 5.364687 22.067766 0.248558 -1.502609 18.784163 0.122104 -1.060565 13.135360 0.000003 0.000000 0.000001 -116.083436 -0.303874 11.615184 64.858008 6.368330 -7.505119 5.004319 -15.814521 6.263440 -5.137232 -0.000001 -0.000002 0.000000 -0.000001 0.000000 -62.737439 -9.339558 -1.049960 94.128360 4.667632 -3.828314 -54.286791 0.007593 -10.933539 -27.609148 0.000012 0.000004 0.000000 0.000000 -0.000000 
9.087598 60.961903 130.975449 46.907523 -10.274706 10.497623 16.019109 4.344522 -1.166117 9.387933 2.534477 -1.628884 9.270611 2.759231 -0.881107 -10.478249 2.515879 -7.251382 -43.207702 1.791933 0.554142 -0.000001 0.000000 -0.000001 -9.497169 -5.864905 -9.219379 -11.356835 -9.419385 -45.863071 -0.000005 -45.351872 0.000005 -31.379310 8.986534 15.846324 3.069216 -6.195730 -22.068964 0.658861 2.701113 -27.411612 0.603502 2.591689 -26.212596 -0.000002 -0.000003 0.000002 2.109859 5.849255 7.403234 4.607737 6.412403 -0.747245 -5.237158 8.522319 11.200358 -0.000003 0.000001 0.000003 -5.100831 -0.997811 14.847940 -14.115779 22.638363 47.499144 0.000007 13.328122 -0.000001 -85.609345 -10.338473 -9.918313 -13.266711 19.505550 9.438890 7.097075 -18.666636 -0.905758 -4.914556 -10.066162 -15.685576 0.000001 0.000000 0.000000 0.138163 5.426939 20.612030 0.218300 -1.410556 17.594245 0.112016 -1.016302 12.577803 0.000001 -0.000002 0.000000 -114.275991 -1.616646 12.029722 64.754667 6.889374 -7.531762 5.608986 -16.395724 6.502278 -5.175932 -0.000000 -0.000003 -0.000001 0.000000 0.000000 -57.746504 -10.495487 0.755724 88.436620 5.031802 -3.338036 -58.834136 2.255742 -12.230774 -29.267972 0.000008 0.000004 -0.000001 0.000000 -0.000000 
9.297467 61.236137 130.334351 44.591819 -11.593645 9.258528 15.913909 3.734312 -1.367722 9.218781 2.126245 -1.823590 9.098542 2.370122 -1.065420 -9.996758 2.714212 -6.926222 -43.153719 2.106455 2.967227 0.000001 -0.000000 0.000000 -9.690975 -3.621553 -12.575669 -9.734112 -10.946765 -42.701038 0.000009 -45.918511 0.000011 -29.890421 9.274599 15.394531 3.086205 -5.680348 -25.563904 0.699990 2.778886 -28.271910 0.738649 2.849521 -29.059316 -0.000002 -0.000000 -0.000003 5.207671 5.909886 6.278271 4.679908 6.776323 -0.673848 -5.248737 8.577535 11.309983 0.000003 0.000001 -0.000001 -6.332586 -1.432357 11.417390 -9.871283 17.902901 52.525951 0.000000 13.093294 -0.000010 -77.452761 -12.699617 -11.663775 -14.029841 19.304760 7.968706 7.092940 -18.672472 -0.941371 -4.903470 -10.157358 -15.704560 0.000003 -0.000000 -0.000002 0.112047 5.503846 18.964597 0.186156 -1.304868 16.237344 0.100549 -0.963574 11.915260 -0.000000 -0.000001 -0.000001 -112.359125 -2.923095 12.549014 64.799610 7.521655 -7.556295 6.265919 -16.902519 6.607160 -5.210255 -0.000010 0.000003 0.000000 -0.000001 -0.000000 -53.445260 -11.194362 2.288003 83.881225 5.833429 -2.955043 -61.454825 4.122731 -13.038052 -26.766905 -0.000000 -0.000003 -0.000001 0.000000 -0.000001 
9.494552 61.414505 129.432129 41.951118 -13.031326 8.080676 15.758517 3.087838 -1.624725 9.019704 1.680060 -2.052445 8.896811 1.948920 -1.284644 -9.667255 2.869811 -6.272038 -42.650406 2.571233 5.301827 -0.000000 0.000000 0.000000 -9.585719 -1.420753 -15.673886 -7.200943 -12.534807 -39.740605 -0.000003 -45.984986 -0.000003 -28.357422 9.480023 15.564159 3.155681 -5.149161 -28.930123 0.732778 2.838931 -28.940874 0.888968 3.104298 -31.953117 0.000000 -0.000002 0.000002 7.945317 5.865964 5.268736 4.744506 7.099879 -0.605141 -5.260989 8.626677 11.411460 -0.000001 0.000000 0.000002 -7.659569 -1.165696 7.189972 -5.431144 14.914913 57.053468 -0.000010 13.633578 -0.000012 -69.361657 -14.823247 -14.417559 -14.757551 19.023269 6.433099 7.088844 -18.678332 -0.977000 -4.892410 -10.248563 -15.723541 0.000004 -0.000001 -0.000000 0.088212 5.587961 17.229769 0.154508 -1.190865 14.784226 0.088695 -0.905492 11.187518 -0.000004 -0.000002 0.000000 -110.291395 -4.229664 13.228493 64.763683 8.031023 -7.539153 7.159637 -17.184971 6.614715 -5.229109 0.000002 0.000001 -0.000000 -0.000000 0.000001 -48.533910 -11.291568 2.893350 79.320367 8.085620 -2.648412 -63.183239 5.769629 -12.881197 -20.530878 -0.000005 -0.000003 0.000000 0.000000 -0.000000 
9.729223 61.594048 128.421143 38.956428 -14.515805 6.806021 15.607653 2.631891 -1.817950 8.827937 1.378590 -2.249714 8.702635 1.671272 -1.471776 -9.704060 2.940352 -5.222581 -41.493498 3.381691 6.909591 0.000002 0.000000 0.000000 -9.463953 -0.092195 -17.412249 -4.422083 -13.409792 -38.263157 0.000002 -45.433250 0.000017 -26.531510 9.121525 15.906860 3.261837 -4.647750 -32.033386 0.759255 2.886245 -29.471150 1.037552 3.330346 -34.600126 0.000001 0.000000 -0.000002 10.250164 5.768153 4.413495 4.801192 7.380089 -0.541387 -5.273633 8.671804 11.507586 -0.000002 -0.000001 0.000001 -8.821420 -0.459619 3.087574 -0.942753 14.051543 60.432633 -0.000002 15.253289 0.000014 -63.790285 -16.097914 -18.262630 -15.423774 18.696511 4.896280 7.084811 -18.684155 -1.012590 -4.881385 -10.339772 -15.742502 -0.000001 0.000001 -0.000000 0.068571 5.671788 15.516783 0.125206 -1.073772 13.301739 0.077144 -0.845046 10.431622 0.000005 0.000001 0.000002 -107.910118 -5.402710 14.033865 64.637645 8.417418 -7.516917 8.152478 -17.389525 6.696209 -5.244028 0.000004 0.000002 0.000000 0.000000 -0.000000 -44.233647 -11.398962 3.407556 75.882138 9.513460 -2.511732 -64.038529 6.877088 -11.854279 -14.407500 0.000002 -0.000001 -0.000001 0.000000 0.000000 
9.983347 62.016571 127.457672 35.644739 -15.923746 5.428497 15.484746 2.459187 -1.879381 8.650090 1.309581 -2.368206 8.522354 1.614113 -1.577565 -9.859560 2.982715 -4.121506 -40.222465 4.525849 7.811472 -0.000000 -0.000000 0.000000 -9.633218 -0.091342 -16.954184 -2.051323 -13.008773 -39.362472 -0.000003 -43.908920 0.000001 -23.842384 7.477145 15.980805 3.381515 -4.218918 -34.722728 0.780811 2.924007 -29.896394 1.164166 3.506477 -36.723345 -0.000002 0.000000 0.000002 11.900399 5.710362 3.694483 4.846490 7.595593 -0.484845 -5.284512 8.732329 11.624896 -0.000002 -0.000001 0.000001 -9.809450 0.328103 -0.576774 2.988796 14.277291 62.930856 0.000001 17.522932 -0.000001 -59.664817 -16.806881 -21.754252 -15.997003 18.347340 3.424704 7.080827 -18.689991 -1.048170 -4.870368 -10.430979 -15.761433 -0.000001 0.000000 0.000000 0.055137 5.746333 13.938698 0.099620 -0.959105 11.859300 0.066539 -0.785286 9.686405 0.000003 0.000001 0.000002 -104.810113 -6.224525 15.056542 64.153426 8.965932 -7.633787 9.127475 -17.945965 7.024498 -5.290327 -0.000000 0.000000 0.000000 -0.000001 0.000000 -41.528158 -11.626999 4.077213 75.427241 9.430610 -2.509063 -63.225429 7.548996 -11.236027 -11.643890 0.000007 -0.000003 0.000000 0.000001 -0.000000 
10.240738 62.796944 126.327866 32.219467 -17.165630 4.191403 15.357542 2.491765 -1.955308 8.452305 1.420777 -2.442072 8.322633 1.719461 -1.635496 -9.721931 3.048382 -3.376538 -39.373254 5.578869 8.403711 0.000000 -0.000000 0.000000 -10.060719 -1.406628 -14.259437 -0.427908 -10.832443 -43.293171 0.000026 -41.109833 0.000021 -19.887486 4.020545 15.636357 3.488825 -3.904878 -36.858747 0.799281 2.955852 -30.256543 1.245619 3.612889 -38.035145 -0.000001 0.000005 0.000002 12.795476 5.766977 3.148332 4.878631 7.734729 -0.436591 -5.293229 8.812555 11.769079 0.000001 0.000000 0.000000 -10.661454 1.054153 -3.672980 5.747842 14.546978 64.970569 -0.000009 19.939023 -0.000007 -55.247962 -17.627245 -23.057510 -16.443197 17.986424 2.083531 7.076900 -18.695785 -1.083765 -4.859398 -10.522190 -15.780380 0.000001 -0.000000 0.000000 0.049331 5.802259 12.604458 0.078545 -0.852655 10.526737 0.057344 -0.729421 8.991205 0.000000 -0.000001 -0.000000 -100.925218 -6.460925 16.146236 62.540279 9.273361 -7.822134 10.469295 -18.195936 7.514023 -5.347852 -0.000007 0.000002 -0.000000 -0.000000 0.000001 -39.321686 -11.698548 4.691790 75.152134 9.420721 -2.515740 -61.517820 7.860856 -11.197111 -11.675460 0.000007 0.000002 -0.000001 0.000001 0.000000 
